<mxfile host="app.diagrams.net" agent="Mozilla/5.0 (Windows NT 10.0; Win64; x64) AppleWebKit/537.36 (KHTML, like Gecko) Chrome/130.0.0.0 Safari/537.36" version="24.8.3">
  <diagram name="페이지-1" id="hWm8xJKBUXEI2cacYI6D">
    <mxGraphModel dx="1050" dy="557" grid="1" gridSize="10" guides="1" tooltips="1" connect="1" arrows="1" fold="1" page="1" pageScale="1" pageWidth="827" pageHeight="1169" math="0" shadow="0">
      <root>
        <mxCell id="0" />
        <mxCell id="1" parent="0" />
        <mxCell id="r6jHGQaFQMVmWAS4QkKr-1" value="" style="rounded=1;whiteSpace=wrap;html=1;" vertex="1" parent="1">
          <mxGeometry x="40" y="200" width="120" height="60" as="geometry" />
        </mxCell>
        <mxCell id="r6jHGQaFQMVmWAS4QkKr-2" value="" style="rounded=1;whiteSpace=wrap;html=1;" vertex="1" parent="1">
          <mxGeometry x="50" y="210" width="120" height="60" as="geometry" />
        </mxCell>
        <mxCell id="r6jHGQaFQMVmWAS4QkKr-5" style="edgeStyle=orthogonalEdgeStyle;rounded=0;orthogonalLoop=1;jettySize=auto;html=1;entryX=0;entryY=0.75;entryDx=0;entryDy=0;spacingTop=7;" edge="1" parent="1" source="r6jHGQaFQMVmWAS4QkKr-3">
          <mxGeometry relative="1" as="geometry">
            <mxPoint x="280" y="245" as="targetPoint" />
          </mxGeometry>
        </mxCell>
        <mxCell id="r6jHGQaFQMVmWAS4QkKr-13" value="크롤러&lt;div&gt;news data&lt;/div&gt;" style="edgeLabel;html=1;align=center;verticalAlign=middle;resizable=0;points=[];" vertex="1" connectable="0" parent="r6jHGQaFQMVmWAS4QkKr-5">
          <mxGeometry x="0.0286" y="1" relative="1" as="geometry">
            <mxPoint y="-20" as="offset" />
          </mxGeometry>
        </mxCell>
        <mxCell id="r6jHGQaFQMVmWAS4QkKr-3" value="Devices" style="rounded=1;whiteSpace=wrap;html=1;" vertex="1" parent="1">
          <mxGeometry x="60" y="220" width="120" height="60" as="geometry" />
        </mxCell>
        <mxCell id="r6jHGQaFQMVmWAS4QkKr-14" value="MySQL" style="shape=cylinder3;whiteSpace=wrap;html=1;boundedLbl=1;backgroundOutline=1;size=15;" vertex="1" parent="1">
          <mxGeometry x="280" y="200" width="60" height="80" as="geometry" />
        </mxCell>
        <mxCell id="r6jHGQaFQMVmWAS4QkKr-15" value="HDFS" style="rounded=1;whiteSpace=wrap;html=1;" vertex="1" parent="1">
          <mxGeometry x="430" y="220" width="120" height="60" as="geometry" />
        </mxCell>
        <mxCell id="r6jHGQaFQMVmWAS4QkKr-17" value="Parquet 파일 형식" style="endArrow=classic;html=1;rounded=0;entryX=0;entryY=0.5;entryDx=0;entryDy=0;spacing=0;exitX=1;exitY=0;exitDx=0;exitDy=52.5;exitPerimeter=0;spacingTop=10;" edge="1" parent="1" source="r6jHGQaFQMVmWAS4QkKr-14" target="r6jHGQaFQMVmWAS4QkKr-15">
          <mxGeometry x="0.0166" y="21" width="50" height="50" relative="1" as="geometry">
            <mxPoint x="350" y="255" as="sourcePoint" />
            <mxPoint x="430" y="252" as="targetPoint" />
            <mxPoint as="offset" />
          </mxGeometry>
        </mxCell>
        <mxCell id="r6jHGQaFQMVmWAS4QkKr-19" value="Spark(WordCount)" style="rounded=1;whiteSpace=wrap;html=1;" vertex="1" parent="1">
          <mxGeometry x="430" y="330" width="120" height="60" as="geometry" />
        </mxCell>
        <mxCell id="r6jHGQaFQMVmWAS4QkKr-20" value="" style="endArrow=classic;html=1;rounded=0;exitX=0.5;exitY=1;exitDx=0;exitDy=0;entryX=0.5;entryY=0;entryDx=0;entryDy=0;" edge="1" parent="1" source="r6jHGQaFQMVmWAS4QkKr-15" target="r6jHGQaFQMVmWAS4QkKr-19">
          <mxGeometry width="50" height="50" relative="1" as="geometry">
            <mxPoint x="390" y="320" as="sourcePoint" />
            <mxPoint x="440" y="270" as="targetPoint" />
          </mxGeometry>
        </mxCell>
        <mxCell id="r6jHGQaFQMVmWAS4QkKr-21" value="" style="endArrow=classic;html=1;rounded=0;exitX=0.5;exitY=1;exitDx=0;exitDy=0;" edge="1" parent="1" source="r6jHGQaFQMVmWAS4QkKr-19">
          <mxGeometry width="50" height="50" relative="1" as="geometry">
            <mxPoint x="390" y="320" as="sourcePoint" />
            <mxPoint x="490" y="440" as="targetPoint" />
          </mxGeometry>
        </mxCell>
        <mxCell id="r6jHGQaFQMVmWAS4QkKr-26" value="OUTPUT" style="edgeLabel;html=1;align=center;verticalAlign=middle;resizable=0;points=[];" vertex="1" connectable="0" parent="r6jHGQaFQMVmWAS4QkKr-21">
          <mxGeometry x="-0.24" relative="1" as="geometry">
            <mxPoint x="-20" y="11" as="offset" />
          </mxGeometry>
        </mxCell>
        <mxCell id="r6jHGQaFQMVmWAS4QkKr-22" value="MySQL" style="shape=cylinder3;whiteSpace=wrap;html=1;boundedLbl=1;backgroundOutline=1;size=15;" vertex="1" parent="1">
          <mxGeometry x="460" y="440" width="60" height="80" as="geometry" />
        </mxCell>
        <mxCell id="r6jHGQaFQMVmWAS4QkKr-23" value="Web&lt;div&gt;Dashboard&lt;/div&gt;" style="rounded=1;whiteSpace=wrap;html=1;" vertex="1" parent="1">
          <mxGeometry x="670" y="260" width="120" height="60" as="geometry" />
        </mxCell>
        <mxCell id="r6jHGQaFQMVmWAS4QkKr-24" value="Backend&lt;div&gt;Server&lt;/div&gt;" style="rounded=1;whiteSpace=wrap;html=1;" vertex="1" parent="1">
          <mxGeometry x="670" y="400" width="120" height="60" as="geometry" />
        </mxCell>
        <mxCell id="r6jHGQaFQMVmWAS4QkKr-27" value="" style="endArrow=classic;startArrow=classic;html=1;rounded=0;exitX=1;exitY=0.5;exitDx=0;exitDy=0;exitPerimeter=0;" edge="1" parent="1" source="r6jHGQaFQMVmWAS4QkKr-22">
          <mxGeometry width="50" height="50" relative="1" as="geometry">
            <mxPoint x="620" y="480" as="sourcePoint" />
            <mxPoint x="670" y="430" as="targetPoint" />
          </mxGeometry>
        </mxCell>
        <mxCell id="r6jHGQaFQMVmWAS4QkKr-28" value="" style="endArrow=classic;startArrow=classic;html=1;rounded=0;exitX=0.5;exitY=0;exitDx=0;exitDy=0;entryX=0.5;entryY=1;entryDx=0;entryDy=0;" edge="1" parent="1" source="r6jHGQaFQMVmWAS4QkKr-24" target="r6jHGQaFQMVmWAS4QkKr-23">
          <mxGeometry width="50" height="50" relative="1" as="geometry">
            <mxPoint x="690" y="370" as="sourcePoint" />
            <mxPoint x="740" y="320" as="targetPoint" />
          </mxGeometry>
        </mxCell>
        <mxCell id="r6jHGQaFQMVmWAS4QkKr-29" value="FastAPI" style="edgeLabel;html=1;align=center;verticalAlign=middle;resizable=0;points=[];" vertex="1" connectable="0" parent="r6jHGQaFQMVmWAS4QkKr-28">
          <mxGeometry x="0.175" y="-2" relative="1" as="geometry">
            <mxPoint as="offset" />
          </mxGeometry>
        </mxCell>
      </root>
    </mxGraphModel>
  </diagram>
</mxfile>
